<svg xmlns="http://www.w3.org/2000/svg" viewBox="0 0 64 64" fill="none" stroke="#2B2118" stroke-width="2.5" stroke-linecap="round" stroke-linejoin="round">
  <path d="M24 8l-3 10c-4 3-7 8-7 14l-3 14c-1 3 1 5 4 5h8c3 0 4-2 4-4v-4"/>
  <path d="M24 8c6-3 14-3 19 1l4 5c1 2 0 4-2 4l-5 1"/>
  <path d="M40 19c4 2 7 6 7 11v14c0 4-3 7-7 7H27"/>
  <path d="M24 8c-2 6-1 12 2 17"/>
  <circle cx="33" cy="24" r="1.6" fill="#2B2118" stroke="none"/>
  <circle cx="18" cy="45" r="1.4" fill="#2B2118" stroke="none"/>
</svg>
